<?xml version="1.0" encoding="utf-8"?>
<!-- Generator: Adobe Illustrator 16.0.0, SVG Export Plug-In . SVG Version: 6.00 Build 0)  -->
<!DOCTYPE svg PUBLIC "-//W3C//DTD SVG 1.1//EN" "http://www.w3.org/Graphics/SVG/1.1/DTD/svg11.dtd">
<svg version="1.1" id="icon" xmlns="http://www.w3.org/2000/svg" xmlns:xlink="http://www.w3.org/1999/xlink" x="0px" y="0px"
	 width="64px" height="64px" viewBox="480 480 64 64" enable-background="new 480 480 64 64" xml:space="preserve">
<path id="settings_1_" fill="#FFFFFF" d="M540.821,507.471l-6.16-1.028c-0.446-1.831-1.101-3.58-1.949-5.213l3.942-4.888
	c0.84-1.034,0.801-2.521-0.083-3.519l-2.452-2.757c-0.888-0.997-2.359-1.207-3.483-0.498l-5.267,3.313
	c-2.319-1.619-4.943-2.815-7.775-3.509l-1.029-6.194c-0.217-1.312-1.354-2.273-2.684-2.273h-3.693c-1.329,0-2.467,0.962-2.681,2.273
	l-1.036,6.196c-2.34,0.572-4.536,1.499-6.54,2.717l-5.01-3.576c-1.08-0.772-2.563-0.65-3.505,0.289l-2.609,2.611
	c-0.94,0.941-1.062,2.425-0.288,3.505l3.584,5.021c-1.206,1.987-2.123,4.171-2.695,6.49l-6.23,1.041
	c-1.309,0.215-2.273,1.352-2.273,2.683v3.691c0,1.332,0.964,2.467,2.273,2.684l6.23,1.039c0.47,1.908,1.154,3.732,2.061,5.423
	l-3.925,4.864c-0.836,1.03-0.8,2.52,0.083,3.517l2.449,2.757c0.889,0.997,2.362,1.205,3.485,0.497l5.346-3.357
	c2.261,1.548,4.819,2.684,7.564,3.357l1.036,6.195c0.213,1.311,1.352,2.274,2.681,2.274h3.693c1.33,0,2.467-0.964,2.684-2.274
	l1.031-6.195c2.312-0.565,4.479-1.475,6.465-2.672l5.219,3.727c1.078,0.773,2.563,0.652,3.503-0.288l2.608-2.613
	c0.941-0.938,1.069-2.42,0.289-3.503l-3.718-5.208c1.212-1.994,2.132-4.181,2.701-6.512l6.16-1.027
	c1.314-0.217,2.274-1.352,2.274-2.684v-3.691C543.095,508.823,542.135,507.687,540.821,507.471z M512.099,523.661
	c-6.438,0-11.66-5.222-11.66-11.661c0-6.438,5.221-11.662,11.66-11.662c6.438,0,11.661,5.223,11.661,11.662
	C523.76,518.439,518.537,523.661,512.099,523.661z"/>
</svg>
