<?xml version="1.0" encoding="utf-8"?>
<!DOCTYPE svg PUBLIC "-//W3C//DTD SVG 1.1//EN" "http://www.w3.org/Graphics/SVG/1.1/DTD/svg11.dtd">
<svg version="1.1" id="Calque_1" xmlns="http://www.w3.org/2000/svg" xmlns:xlink="http://www.w3.org/1999/xlink" x="0px" y="0px"
	 width="612px" height="515.12px" viewBox="0 138.409 612 515.12" enable-background="new 0 138.409 612 515.12"
	 xml:space="preserve">
<g>
	<path fill="#005a6e" d="M244.861,506.956"/>
	<path fill="#005a6e" d="M228.398,453.896h260.345c12.24,0,24.541-7.772,29.192-18.482l85.925-196.881c3.121-7.222,2.57-15.178-1.469-21.358
		c-3.917-5.937-10.343-9.364-17.687-9.364H173.318l-7.956-35.496c-4.223-19.033-23.133-33.905-43.023-33.905H18.727
		C11.75,138.47,6.12,144.101,6.12,151.078c0,6.977,5.63,12.607,12.607,12.607H122.4c8.14,0,16.708,6.61,18.36,14.199l80.294,358.816
		c-25.275,6.854-44.002,29.927-44.002,57.344c0,32.804,26.683,59.486,59.486,59.486s59.486-26.683,59.486-59.486
		c0-12.179-3.672-23.439-9.976-32.864h165.913c-6.304,9.425-9.976,20.747-9.976,32.864c0,32.804,26.684,59.486,59.486,59.486
		c32.804,0,59.486-26.683,59.486-59.486c0-32.803-26.683-59.486-59.486-59.486c-4.284,0-8.445,0.489-12.484,1.347H249.084
		c-0.795-0.184-1.591-0.306-2.387-0.429L228.398,453.896z M578.707,233.085l-83.905,192.229c-0.551,1.285-3.61,3.366-6.059,3.366
		H222.768L179.01,233.085H578.707z M270.81,594.043c0,18.911-15.361,34.272-34.272,34.272c-18.911,0-34.272-15.361-34.272-34.272
		c0-18.115,14.076-32.926,31.885-34.149c1.652,0.796,3.427,1.224,5.324,1.224h6.548C260.345,565.279,270.81,578.438,270.81,594.043
		 M535.806,594.043c0,18.911-15.36,34.272-34.271,34.272s-34.272-15.361-34.272-34.272c0-15.605,10.466-28.764,24.786-32.864h6.12
		c1.897,0,3.733-0.489,5.386-1.224C521.547,560.995,535.806,575.867,535.806,594.043"/>
</g>
</svg>
