<?xml version="1.0" encoding="utf-8"?>
<!-- Generator: Adobe Illustrator 16.0.0, SVG Export Plug-In . SVG Version: 6.00 Build 0)  -->
<!DOCTYPE svg PUBLIC "-//W3C//DTD SVG 1.1//EN" "http://www.w3.org/Graphics/SVG/1.1/DTD/svg11.dtd">
<svg version="1.1" id="Capa_1" xmlns="http://www.w3.org/2000/svg" xmlns:xlink="http://www.w3.org/1999/xlink" x="0px" y="0px"
	 width="100px" height="100px" viewBox="370.945 545.275 100 100" enable-background="new 370.945 545.275 100 100"
	 xml:space="preserve">
<g>
	<path fill="#005a6e" d="M420.971,554.998l37.953,37.953h-3.648h-6v6v38.106h-14.954v-16.054v-6h-6H413.62h-6v6v16.054h-14.954V598.95v-6h-6h-3.648
		L420.971,554.998 M420.971,547.492c-0.644,0-1.287,0.245-1.715,0.735l-46.557,46.557c-1.592,1.471-0.49,4.166,1.715,4.166h12.252
		v41.656c0,1.348,1.103,2.45,2.45,2.45h22.053c1.348,0,2.451-1.103,2.451-2.45v-19.604h14.702v19.604c0,1.348,1.103,2.45,2.451,2.45
		h22.053c1.348,0,2.45-1.103,2.45-2.45V598.95h12.252c2.695,0,3.063-2.818,1.471-4.411l-46.313-46.312
		C422.257,547.738,421.614,547.492,420.971,547.492L420.971,547.492z"/>
</g>
</svg>
