<?xml version="1.0" encoding="utf-8"?>
<!-- Generator: Adobe Illustrator 16.0.0, SVG Export Plug-In . SVG Version: 6.00 Build 0)  -->
<!DOCTYPE svg PUBLIC "-//W3C//DTD SVG 1.1//EN" "http://www.w3.org/Graphics/SVG/1.1/DTD/svg11.dtd">
<svg version="1.1" id="Calque_1" xmlns="http://www.w3.org/2000/svg" xmlns:xlink="http://www.w3.org/1999/xlink" x="0px" y="0px"
	 width="321.146px" height="64.949px" viewBox="0 0 321.146 64.949" enable-background="new 0 0 321.146 64.949"
	 xml:space="preserve">
<g>
	<path fill="none" d="M192.376,26.859c-1.988-0.489-3.53-0.734-4.625-0.734h-0.648c-5.844,0-10.288,3.064-13.339,9.178l25.008-3.905
		C197.193,29.625,195.067,28.109,192.376,26.859z"/>
	<path fill="none" d="M77.399,50.354l8.164-1.274c-1.806-5.459-3.116-9.395-3.932-11.803L77.399,50.354z"/>
	<path fill="none" d="M137.522,26.816h-1.772c-4.727,0-8.617,2.334-11.671,7.003c-1.066,1.844-1.657,3.185-1.772,4.02h28.313
		c0-1.065-1.196-3.213-3.588-6.44C143.804,28.344,140.634,26.816,137.522,26.816z"/>
	<path fill="none" d="M51.288,30.268c-2.362,2.36-4.257,0.359-4.257,0.359l-4.769-4.797L34.8,34.456l6.833,6.83
		c0,0,1.437,1.335,0.624,3.998l-2.459,10.943l22.841-3.567l-8.134-25.631L51.288,30.268z"/>
	<path fill="#7AD0E2" d="M157.233,30.447c-4.986-8.559-11.989-12.838-21.008-12.838c-3.487,0-7.205,0.98-11.152,2.939
		c-8.098,5.072-12.146,11.901-12.146,20.489c0,1.257,0.11,2.495,0.306,3.72l46.293-7.23
		C159.139,35.048,158.381,32.686,157.233,30.447z M122.306,37.839c0.115-0.835,0.706-2.176,1.772-4.02
		c3.054-4.669,6.945-7.003,11.671-7.003h1.772c3.112,0,6.282,1.527,9.51,4.582c2.392,3.228,3.588,5.375,3.588,6.44H122.306z"/>
	<path fill="#7AD0E2" d="M187.103,26.125h0.648c1.095,0,2.637,0.245,4.625,0.734c2.691,1.25,4.817,2.766,6.396,4.538l9.538-1.49
		c-1.106-2.024-2.54-3.962-4.306-5.813c-4.957-4.611-10.476-6.917-16.556-6.917c-6.283,0-11.195,1.7-14.74,5.101V4.123
		c0-2.133-1.369-3.502-4.106-4.107h-0.735c-2.738,0.605-4.106,1.975-4.106,4.107v32.742l10.003-1.563
		C176.814,29.189,181.259,26.125,187.103,26.125z"/>
	<polygon fill="#FFF459" points="229.825,26.027 233.551,8.498 257.188,8.498 258.994,0 225.264,0 219.272,28.195 233.147,26.027 	
		"/>
	<polygon fill="#FFF459" points="275.906,0 265.813,0 261.214,21.645 271.653,20.014 	"/>
	<polygon fill="#FFF459" points="304.555,8.498 319.34,8.498 321.146,0 281.219,0 279.412,8.498 294.463,8.498 292.715,16.724 
		303.153,15.094 	"/>
	<path fill="#7AD0E2" d="M44.997,17.865c2.776,0,5.028-2.25,5.028-5.026s-2.252-5.024-5.028-5.024c-2.771,0-5.021,2.248-5.021,5.024
		S42.226,17.865,44.997,17.865z"/>
	<path fill="#7AD0E2" d="M42.256,45.284c0.813-2.663-0.624-3.998-0.624-3.998l-6.833-6.83l7.462-8.626l4.769,4.797
		c0,0,1.895,2.001,4.257-0.359l3.215-3.238l-1.316-4.146c0.605-3.055,2.118-4.582,4.539-4.582c0.046,0,0.09,0.006,0.136,0.008
		c-0.26-0.086-0.533-0.145-0.821-0.145c-0.637,0-1.224,0.231-1.679,0.615l-6.448,6.438l-7.781-7.777
		c-0.59-0.574-1.398-0.934-2.292-0.934H26.634c-0.785,0-1.488,0.36-1.954,0.923l-8.427,9.704c-0.525,0.463-0.857,1.139-0.857,1.895
		c0,1.396,1.134,2.532,2.533,2.532c0.786,0,1.486-0.359,1.952-0.926l7.821-9.034l4.502,0.023l-17.22,19.964l-11.646-0.03
		c-0.271-0.008-0.546,0.018-0.824,0.076c-1.75,0.392-2.827,2.105-2.434,3.862c0.343,1.531,1.716,2.563,3.227,2.537l13.542-0.021
		c2.871,0.102,3.947-1.233,3.947-1.233l6.677-7.444l7.762,7.549L32.89,57.307l6.907-1.079L42.256,45.284z"/>
	<path fill="#7AD0E2" d="M105.88,18.301c-1.269,0-2.522,0.663-3.761,1.988c-0.577,1.239-3.372,9.784-8.386,25.634l-6.917-21.354
		c-0.75-4.178-2.464-6.268-5.144-6.268c-1.182,0.145-2.277,0.648-3.285,1.513c-0.519,0.692-3.415,9.396-8.689,26.109l-6.613-20.23
		c-0.878-4.843-2.621-7.3-5.225-7.384c-0.046-0.002-0.089-0.008-0.136-0.008c-2.42,0-3.934,1.527-4.539,4.582l1.316,4.146
		l8.134,25.631l14.761-2.306l4.231-13.077c0.816,2.408,2.126,6.344,3.932,11.803l17.169-2.682l7.515-23.387
		C110.246,20.447,108.791,18.877,105.88,18.301z"/>
	<linearGradient id="SVGID_1_" gradientUnits="userSpaceOnUse" x1="70.0181" y1="64.5098" x2="70.0181" y2="50.3545">
		<stop  offset="0" style="stop-color:#7AD0E2"/>
		<stop  offset="0.1998" style="stop-color:#74CDE1"/>
		<stop  offset="0.4382" style="stop-color:#62C7DF"/>
		<stop  offset="0.6961" style="stop-color:#3BBDDC"/>
		<stop  offset="0.9662" style="stop-color:#00B2D9"/>
		<stop  offset="1" style="stop-color:#00B0D8"/>
	</linearGradient>
	<path fill="url(#SVGID_1_)" d="M65.205,60.749c0.835,2.507,2.319,3.761,4.452,3.761h0.13c1.412,0,2.651-0.707,3.717-2.118
		l3.895-12.037L62.638,52.66L65.205,60.749z"/>
	<linearGradient id="SVGID_2_" gradientUnits="userSpaceOnUse" x1="94.147" y1="64.5098" x2="94.147" y2="46.3984">
		<stop  offset="0" style="stop-color:#7AD0E2"/>
		<stop  offset="0.1998" style="stop-color:#74CDE1"/>
		<stop  offset="0.4382" style="stop-color:#62C7DF"/>
		<stop  offset="0.6961" style="stop-color:#3BBDDC"/>
		<stop  offset="0.9662" style="stop-color:#00B2D9"/>
		<stop  offset="1" style="stop-color:#00B0D8"/>
	</linearGradient>
	<path fill="url(#SVGID_2_)" d="M88.287,57.334c0.922,4.784,2.724,7.176,5.403,7.176h0.13c1.152,0,2.377-0.605,3.674-1.815
		l5.237-16.296L85.563,49.08C86.372,51.525,87.279,54.275,88.287,57.334z"/>
	<linearGradient id="SVGID_3_" gradientUnits="userSpaceOnUse" x1="136.5293" y1="64.5098" x2="136.5293" y2="37.5273">
		<stop  offset="0" style="stop-color:#7AD0E2"/>
		<stop  offset="0.1998" style="stop-color:#74CDE1"/>
		<stop  offset="0.4382" style="stop-color:#62C7DF"/>
		<stop  offset="0.6961" style="stop-color:#3BBDDC"/>
		<stop  offset="0.9662" style="stop-color:#00B2D9"/>
		<stop  offset="1" style="stop-color:#00B0D8"/>
	</linearGradient>
	<path fill="url(#SVGID_3_)" d="M136.225,64.51h1.21c8.559-1.124,12.838-3.386,12.838-6.786v-0.476c0-2.306-1.355-3.718-4.063-4.236
		h-1.383c-3.228,1.614-5.994,2.421-8.299,2.421c-1.988,0-4.122-0.433-6.397-1.297c-3.862-2.075-6.21-4.539-7.046-7.392h32.376
		c2.392,0,3.847-1.47,4.366-4.409v-0.951c0-1.317-0.106-2.601-0.302-3.856l-46.293,7.23c0.437,2.731,1.35,5.384,2.763,7.951
		C121.067,60.576,127.811,64.51,136.225,64.51z"/>
	<linearGradient id="SVGID_4_" gradientUnits="userSpaceOnUse" x1="187.4272" y1="64.5098" x2="187.4272" y2="29.9072">
		<stop  offset="0" style="stop-color:#7AD0E2"/>
		<stop  offset="0.1998" style="stop-color:#74CDE1"/>
		<stop  offset="0.4382" style="stop-color:#62C7DF"/>
		<stop  offset="0.6961" style="stop-color:#3BBDDC"/>
		<stop  offset="0.9662" style="stop-color:#00B2D9"/>
		<stop  offset="1" style="stop-color:#00B0D8"/>
	</linearGradient>
	<path fill="url(#SVGID_4_)" d="M168.818,55.562c5.475,5.966,11.412,8.948,17.809,8.948h1.297c3.4,0,6.931-0.923,10.59-2.767
		c8.386-5.071,12.58-12.045,12.58-20.922c0-3.881-0.929-7.519-2.784-10.914l-9.538,1.49c2.243,2.517,3.374,5.554,3.374,9.122v0.994
		c0,1.037-0.246,2.521-0.735,4.452c-3.055,6.397-7.551,9.596-13.487,9.596h-0.994c-1.383,0-2.911-0.244-4.582-0.734
		c-6.427-2.997-9.64-7.55-9.64-13.66v-0.821c0-1.411,0.303-2.996,0.908-4.755c0.048-0.099,0.099-0.19,0.148-0.288l-10.003,1.563
		v2.833C163.76,45.778,165.446,51.066,168.818,55.562z"/>
	<linearGradient id="SVGID_5_" gradientUnits="userSpaceOnUse" x1="231.9395" y1="63.2109" x2="231.9395" y2="26.0273">
		<stop  offset="0" style="stop-color:#FFF459"/>
		<stop  offset="0.628" style="stop-color:#FFD750"/>
		<stop  offset="1" style="stop-color:#FFCA4B"/>
	</linearGradient>
	<polygon fill="url(#SVGID_5_)" points="221.924,63.211 228.02,34.526 250.24,34.526 252.047,26.027 233.147,26.027 219.272,28.195 
		211.831,63.211 	"/>
	<linearGradient id="SVGID_6_" gradientUnits="userSpaceOnUse" x1="262.0166" y1="63.2109" x2="262.0166" y2="20.0137">
		<stop  offset="0" style="stop-color:#FFF459"/>
		<stop  offset="0.628" style="stop-color:#FFD750"/>
		<stop  offset="1" style="stop-color:#FFCA4B"/>
	</linearGradient>
	<polygon fill="url(#SVGID_6_)" points="262.473,63.211 271.653,20.014 261.214,21.645 252.38,63.211 	"/>
	<linearGradient id="SVGID_7_" gradientUnits="userSpaceOnUse" x1="292.9941" y1="63.2109" x2="292.9941" y2="15.0938">
		<stop  offset="0" style="stop-color:#FFF459"/>
		<stop  offset="0.628" style="stop-color:#FFD750"/>
		<stop  offset="1" style="stop-color:#FFCA4B"/>
	</linearGradient>
	<polygon fill="url(#SVGID_7_)" points="292.928,63.211 303.153,15.094 292.715,16.724 282.836,63.211 	"/>
	<linearGradient id="SVGID_8_" gradientUnits="userSpaceOnUse" x1="35.8911" y1="64.9492" x2="35.8911" y2="56.2275">
		<stop  offset="0" style="stop-color:#7AD0E2"/>
		<stop  offset="0.1998" style="stop-color:#74CDE1"/>
		<stop  offset="0.4382" style="stop-color:#62C7DF"/>
		<stop  offset="0.6961" style="stop-color:#3BBDDC"/>
		<stop  offset="0.9662" style="stop-color:#00B2D9"/>
		<stop  offset="1" style="stop-color:#00B0D8"/>
	</linearGradient>
	<path fill="url(#SVGID_8_)" d="M31.985,61.699c0,1.795,1.458,3.25,3.25,3.25c1.572,0,2.88-1.112,3.185-2.594l1.376-6.128
		l-6.907,1.079l-0.804,3.572C32.021,61.144,31.985,61.419,31.985,61.699z"/>
</g>
</svg>
