<?xml version="1.0" encoding="utf-8"?>
<!-- Generator: Adobe Illustrator 16.0.0, SVG Export Plug-In . SVG Version: 6.00 Build 0)  -->
<!DOCTYPE svg PUBLIC "-//W3C//DTD SVG 1.1//EN" "http://www.w3.org/Graphics/SVG/1.1/DTD/svg11.dtd">
<svg version="1.1" id="Calque_1" xmlns="http://www.w3.org/2000/svg" xmlns:xlink="http://www.w3.org/1999/xlink" x="0px" y="0px"
	 width="350px" height="350px" viewBox="0 0 350 350" enable-background="new 0 0 350 350" xml:space="preserve">
<path opacity="0.6" fill="#FFFFFF" d="M321.252,304.209c-14.014-107.872-91.342-119.498-94.628-119.941
	c0,0-6.823-1.349-12.214-1.822c0-0.007,0.006-0.013,0.006-0.02v-34.688c10.392-9.908,16.896-23.856,16.896-39.349
	c0-29.956-24.209-54.247-54.13-54.404c-0.097-0.002-0.19-0.016-0.288-0.016c-30.053,0-54.418,24.367-54.418,54.42
	c0,15.494,6.51,29.441,16.903,39.355v34.551c-6,0.12-15.987,1.375-15.987,1.375c-3.285,0.444-80.617,12.076-94.628,119.941
	c-2.202,16.953-3.324,32.678-3.768,46.795h55.037c0.42-12.016,1.399-25.356,3.265-39.712c2.22-17.101,6.442-30.175,11.495-40.208
	l7.671,79.92h74.718h71.858l7.377-76.89c4.524,9.69,8.257,22.034,10.301,37.775c1.832,14.116,2.809,27.253,3.241,39.114h55.037
	C324.545,336.44,323.424,320.925,321.252,304.209z"/>
</svg>
